<svg width="15" height="15" viewBox="0 0 15 15" fill="none" xmlns="http://www.w3.org/2000/svg">
<g clip-path="url(#clip0_3024_27)">
<path d="M-0.000457764 3.75C-0.000457764 3.25272 0.197086 2.77581 0.548717 2.42417C0.900348 2.07254 1.37726 1.875 1.87454 1.875H13.1245C13.6218 1.875 14.0987 2.07254 14.4504 2.42417C14.802 2.77581 14.9995 3.25272 14.9995 3.75V11.25C14.9995 11.7473 14.802 12.2242 14.4504 12.5758C14.0987 12.9275 13.6218 13.125 13.1245 13.125H1.87454C1.37726 13.125 0.900348 12.9275 0.548717 12.5758C0.197086 12.2242 -0.000457764 11.7473 -0.000457764 11.25V3.75ZM1.87454 2.8125C1.6259 2.8125 1.38744 2.91127 1.21163 3.08709C1.03581 3.2629 0.937042 3.50136 0.937042 3.75V3.95344L7.49954 7.89094L14.062 3.95344V3.75C14.062 3.50136 13.9633 3.2629 13.7875 3.08709C13.6116 2.91127 13.3732 2.8125 13.1245 2.8125H1.87454ZM14.062 5.04656L9.60142 7.72312L14.062 10.4194V5.0475V5.04656ZM14.0302 11.4947L8.6911 8.26875L7.49954 8.98406L6.30704 8.26875L0.968917 11.4938C1.02254 11.6929 1.14034 11.8688 1.30406 11.9942C1.46779 12.1196 1.6683 12.1876 1.87454 12.1875H13.1245C13.3307 12.1876 13.5311 12.1198 13.6948 11.9946C13.8585 11.8694 13.9764 11.6937 14.0302 11.4947V11.4947ZM0.937042 10.4194L5.39767 7.72312L0.937042 5.04656V10.4184V10.4194Z" fill="white"/>
</g>
<defs>
<clipPath id="clip0_3024_27">
<rect width="15" height="15" fill="white"/>
</clipPath>
</defs>
</svg>
