<svg width="24" height="24" viewBox="0 0 24 24" fill="none" xmlns="http://www.w3.org/2000/svg">
<rect width="24" height="24" rx="12" fill="#F6F6F6"/>
<path d="M11.9752 9.38347C10.5419 9.38347 9.38585 10.5396 9.38585 11.9729C9.38585 13.4062 10.5419 14.5623 11.9752 14.5623C13.4085 14.5623 14.5646 13.4062 14.5646 11.9729C14.5646 10.5396 13.4085 9.38347 11.9752 9.38347ZM11.9752 13.6563C11.049 13.6563 10.2918 12.9013 10.2918 11.9729C10.2918 11.0444 11.0468 10.2894 11.9752 10.2894C12.9037 10.2894 13.6587 11.0444 13.6587 11.9729C13.6587 12.9013 12.9015 13.6563 11.9752 13.6563ZM15.2745 9.27755C15.2745 9.61334 15.0041 9.88152 14.6706 9.88152C14.3348 9.88152 14.0666 9.61108 14.0666 9.27755C14.0666 8.94402 14.337 8.67358 14.6706 8.67358C15.0041 8.67358 15.2745 8.94402 15.2745 9.27755ZM16.9895 9.89053C16.9512 9.08149 16.7664 8.36484 16.1737 7.7744C15.5833 7.18395 14.8666 6.99915 14.0576 6.95859C13.2237 6.91126 10.7245 6.91126 9.89065 6.95859C9.08386 6.9969 8.36722 7.1817 7.77452 7.77214C7.18182 8.36259 6.99928 9.07923 6.95871 9.88828C6.91139 10.7221 6.91139 13.2214 6.95871 14.0552C6.99702 14.8642 7.18182 15.5809 7.77452 16.1713C8.36722 16.7618 9.08161 16.9466 9.89065 16.9871C10.7245 17.0345 13.2237 17.0345 14.0576 16.9871C14.8666 16.9488 15.5833 16.764 16.1737 16.1713C16.7642 15.5809 16.9489 14.8642 16.9895 14.0552C17.0368 13.2214 17.0368 10.7244 16.9895 9.89053ZM15.9123 14.9499C15.7365 15.3916 15.3962 15.7319 14.9523 15.9099C14.2874 16.1736 12.7099 16.1127 11.9752 16.1127C11.2406 16.1127 9.66079 16.1713 8.99822 15.9099C8.55652 15.7341 8.21622 15.3938 8.03819 14.9499C7.77452 14.2851 7.83536 12.7075 7.83536 11.9729C7.83536 11.2382 7.77677 9.65841 8.03819 8.99585C8.21397 8.55414 8.55426 8.21385 8.99822 8.03581C9.66304 7.77214 11.2406 7.83299 11.9752 7.83299C12.7099 7.83299 14.2897 7.7744 14.9523 8.03581C15.394 8.21159 15.7343 8.55189 15.9123 8.99585C16.176 9.66066 16.1151 11.2382 16.1151 11.9729C16.1151 12.7075 16.176 14.2873 15.9123 14.9499Z" fill="#666666"/>
</svg>
