<svg width="15" height="15" viewBox="0 0 15 15" fill="none" xmlns="http://www.w3.org/2000/svg">
<g clip-path="url(#clip0_3024_61)">
<path d="M14.8131 15.5202C15.0083 15.7155 15.3249 15.7155 15.5202 15.5202C15.7154 15.325 15.7154 15.0084 15.5202 14.8131L14.8131 15.5202ZM12.1666 6.83334C12.1666 9.77886 9.77881 12.1667 6.83329 12.1667V13.1667C10.3311 13.1667 13.1666 10.3311 13.1666 6.83334H12.1666ZM6.83329 12.1667C3.88777 12.1667 1.49996 9.77886 1.49996 6.83334H0.499959C0.499959 10.3311 3.33549 13.1667 6.83329 13.1667V12.1667ZM1.49996 6.83334C1.49996 3.88782 3.88777 1.5 6.83329 1.5V0.5C3.33549 0.5 0.499959 3.33553 0.499959 6.83334H1.49996ZM6.83329 1.5C9.77881 1.5 12.1666 3.88782 12.1666 6.83334H13.1666C13.1666 3.33553 10.3311 0.5 6.83329 0.5V1.5ZM10.6464 11.3536L14.8131 15.5202L15.5202 14.8131L11.3535 10.6465L10.6464 11.3536Z" fill="#666666"/>
</g>
<defs>
<clipPath id="clip0_3024_61">
<rect width="15" height="15" fill="white"/>
</clipPath>
</defs>
</svg>
