<svg width="15" height="15" viewBox="0 0 15 15" fill="none" xmlns="http://www.w3.org/2000/svg">
<path d="M1.875 2.5H2.25395C2.89184 2.5 3.4274 2.98031 3.49658 3.61444L4.00342 8.26056C4.0726 8.89469 4.60816 9.375 5.24605 9.375H10.6538C11.2252 9.375 11.7238 8.98755 11.865 8.43389L12.7275 5.05194C12.929 4.26159 12.3319 3.49306 11.5162 3.49306H4.125M4.14047 11.6406H4.60922M4.14047 12.1093H4.60922M11.0155 11.6406H11.4842M11.0155 12.1093H11.4842M5 11.875C5 12.2202 4.72018 12.5 4.375 12.5C4.02982 12.5 3.75 12.2202 3.75 11.875C3.75 11.5298 4.02982 11.25 4.375 11.25C4.72018 11.25 5 11.5298 5 11.875ZM11.875 11.875C11.875 12.2202 11.5952 12.5 11.25 12.5C10.9048 12.5 10.625 12.2202 10.625 11.875C10.625 11.5298 10.9048 11.25 11.25 11.25C11.5952 11.25 11.875 11.5298 11.875 11.875Z" stroke="#666666" stroke-linecap="round"/>
</svg>
