<svg width="15" height="15" viewBox="0 0 15 15" fill="none" xmlns="http://www.w3.org/2000/svg">
<g clip-path="url(#clip0_3024_21)">
<path d="M3.42596 1.24525C3.37062 1.17406 3.30076 1.11545 3.22103 1.07334C3.1413 1.03122 3.05352 1.00655 2.96352 1.00096C2.87352 0.995374 2.78337 1.009 2.69904 1.04094C2.61471 1.07287 2.53815 1.12238 2.47443 1.18619L1.50508 2.15647C1.05228 2.61021 0.885414 3.25238 1.08322 3.81581C1.9042 6.14787 3.23968 8.26516 4.9906 10.0107C6.7361 11.7616 8.85338 13.097 11.1854 13.9181C11.7488 14.1159 12.391 13.949 12.8447 13.4962L13.8141 12.5268C13.8779 12.4631 13.9274 12.3866 13.9593 12.3022C13.9913 12.2179 14.0049 12.1277 13.9993 12.0377C13.9937 11.9477 13.969 11.86 13.9269 11.7802C13.8848 11.7005 13.8262 11.6306 13.755 11.5753L11.5923 9.89347C11.5162 9.83448 11.4277 9.79354 11.3336 9.77372C11.2394 9.75391 11.1419 9.75575 11.0485 9.7791L8.99547 10.2919C8.72143 10.3604 8.43432 10.3568 8.1621 10.2814C7.88988 10.2059 7.64182 10.0613 7.44208 9.8616L5.13966 7.55822C4.93976 7.35857 4.79497 7.11055 4.7194 6.83833C4.64383 6.5661 4.64004 6.27894 4.70842 6.00482L5.22215 3.95174C5.2455 3.85837 5.24734 3.76091 5.22753 3.66671C5.20772 3.57252 5.16677 3.48406 5.10778 3.40801L3.42596 1.24525ZM1.76664 0.479327C1.93069 0.315222 2.12778 0.187894 2.34481 0.1058C2.56185 0.0237061 2.79386 -0.0112762 3.02545 0.00317621C3.25705 0.0176286 3.48291 0.081185 3.68806 0.189625C3.8932 0.298065 4.07293 0.448908 4.21531 0.632136L5.89713 2.79396C6.20556 3.19051 6.31431 3.70706 6.19244 4.19455L5.67964 6.24762C5.65313 6.35396 5.65456 6.46535 5.6838 6.57097C5.71303 6.67659 5.76909 6.77286 5.84651 6.85042L8.14987 9.1538C8.22753 9.23138 8.32396 9.28753 8.42976 9.31677C8.53556 9.34601 8.64713 9.34736 8.7536 9.32067L10.8057 8.80787C11.0463 8.74772 11.2974 8.74305 11.54 8.79421C11.7827 8.84537 12.0105 8.95102 12.2063 9.10318L14.3681 10.785C15.1453 11.3897 15.2165 12.5381 14.5209 13.2328L13.5516 14.2021C12.8579 14.8959 11.821 15.2005 10.8545 14.8602C8.38066 13.9898 6.13457 12.5736 4.28281 10.7166C2.42595 8.86507 1.00973 6.6193 0.139187 4.1458C-0.200177 3.1802 0.104501 2.14241 0.798229 1.44868L1.76757 0.479327H1.76664Z" fill="white"/>
</g>
<defs>
<clipPath id="clip0_3024_21">
<rect width="15" height="15" fill="white"/>
</clipPath>
</defs>
</svg>
