<svg width="24" height="24" viewBox="0 0 24 24" fill="none" xmlns="http://www.w3.org/2000/svg">
<rect width="24" height="24" rx="12" fill="#F6F6F6"/>
<path d="M17.737 9.72015C17.7444 9.82264 17.7444 9.92516 17.7444 10.0276C17.7444 13.1539 15.3649 16.756 11.016 16.756C9.67622 16.756 8.4316 16.3679 7.38464 15.6944C7.57501 15.7163 7.75802 15.7237 7.95571 15.7237C9.06121 15.7237 10.0789 15.3503 10.8916 14.7133C9.85194 14.6914 8.98069 14.0105 8.68051 13.0733C8.82695 13.0953 8.97337 13.1099 9.12713 13.1099C9.33944 13.1099 9.55178 13.0806 9.74944 13.0294C8.66589 12.8097 7.85319 11.858 7.85319 10.7085V10.6793C8.168 10.855 8.5341 10.9648 8.9221 10.9794C8.28514 10.5548 7.86784 9.82996 7.86784 9.00997C7.86784 8.57069 7.98496 8.16802 8.18997 7.81659C9.35407 9.25158 11.1039 10.1887 13.066 10.2912C13.0294 10.1155 13.0074 9.93248 13.0074 9.74944C13.0074 8.44623 14.0617 7.38464 15.3722 7.38464C16.0531 7.38464 16.6681 7.67018 17.1001 8.13142C17.6345 8.02893 18.147 7.83124 18.6009 7.56036C18.4252 8.10947 18.0518 8.57072 17.5613 8.86355C18.0372 8.81233 18.4984 8.68051 18.9231 8.4975C18.601 8.96604 18.1983 9.38334 17.737 9.72015V9.72015Z" fill="#666666"/>
</svg>
